<?xml version="1.0" encoding="utf-8"?>
<!-- Generator: Adobe Illustrator 23.0.0, SVG Export Plug-In . SVG Version: 6.00 Build 0)  -->
<svg version="1.1" id="Layer_1" xmlns="http://www.w3.org/2000/svg" xmlns:xlink="http://www.w3.org/1999/xlink" x="0px" y="0px"
	 viewBox="0 0 158.3 195.7" style="enable-background:new 0 0 158.3 195.7;" xml:space="preserve">
<style type="text/css">
	.st0{fill:#FFFFFF;stroke:#2D3E98;stroke-width:7;stroke-miterlimit:10;}
	.st1{fill:none;stroke:#2D3E98;stroke-width:7;stroke-miterlimit:10;}
</style>
<circle class="st0" cx="80.2" cy="41.7" r="34.3"/>
<path class="st1" d="M14.1,107.3c0-17.3,10.8-27.2,44-26.2c0.1,0,0,0.2,0,0.2c0,7.9,10.8,10.4,22.1,10.4s22.1-2.4,22.1-10.4
	c0,0-0.1-0.2,0-0.2c26.4-5,44,8.9,44,26.2"/>
<g>
	<path class="st1" d="M82.3,190.6v-62.1c0-8.7,25.8-15.8,57.6-15.8v62.1C108,174.9,82.3,181.9,82.3,190.6z"/>
	<path class="st1" d="M78,190.6v-62.1c0-8.7-25.8-15.8-57.6-15.8v62.1C52.3,174.9,78,181.9,78,190.6z"/>
</g>
</svg>
